<svg width="42" height="42" viewBox="0 0 42 42" fill="none" xmlns="http://www.w3.org/2000/svg">
<circle cx="21" cy="21" r="21" fill="#F7F7F7"/>
<path d="M20.3522 15.1733L21 16.2833L21.6478 15.1733C22.1245 14.3564 22.823 13.6684 23.6768 13.1825C24.5248 12.7 25.4941 12.4351 26.4879 12.417C28.0886 12.4882 29.5875 13.1546 30.6623 14.2603C31.7406 15.3694 32.3051 16.8297 32.2458 18.3207L32.2452 18.3356V18.3505C32.2452 20.2461 31.1811 22.3323 29.5167 24.4059C27.8683 26.4595 25.7171 28.395 23.7318 29.9744L23.7313 29.9748C22.9713 30.5805 22.0043 30.9167 21 30.9167C19.9957 30.9167 19.0287 30.5805 18.2687 29.9748L18.2682 29.9744C16.2829 28.395 14.1317 26.4595 12.4833 24.4059C10.8189 22.3323 9.75484 20.2461 9.75484 18.3505V18.3356L9.75425 18.3207C9.69493 16.8297 10.2595 15.3694 11.3377 14.2603C12.4125 13.1546 13.9114 12.4882 15.5121 12.417C16.5059 12.4351 17.4752 12.7 18.3232 13.1825C19.177 13.6684 19.8755 14.3564 20.3522 15.1733Z" stroke="#848484" stroke-width="1.5"/>
</svg>
