<svg width="69" height="69" viewBox="0 0 69 69" fill="none" xmlns="http://www.w3.org/2000/svg">
<rect width="69" height="69" rx="34.5" fill="#008060" fill-opacity="0.08"/>
<path d="M42.4335 28.4333C42.2052 28.149 41.9194 27.9204 41.5963 27.7636C41.2733 27.6069 40.921 27.5259 40.5644 27.5263H27.4427L27.4086 27.2307C27.3389 26.6164 27.0543 26.0499 26.6088 25.6387C26.1633 25.2276 25.588 25.0003 24.9918 25H24.8116C24.5963 25 24.3899 25.0887 24.2377 25.2466C24.0855 25.4046 24 25.6188 24 25.8421C24 26.0654 24.0855 26.2796 24.2377 26.4376C24.3899 26.5955 24.5963 26.6842 24.8116 26.6842H24.9918C25.1905 26.6842 25.3824 26.76 25.5309 26.897C25.6795 27.0341 25.7744 27.2229 25.7977 27.4278L26.9144 37.2804C27.0303 38.3051 27.5048 39.2499 28.2477 39.9356C28.9907 40.6213 29.9504 41 30.9447 41H39.4201C39.6353 41 39.8417 40.9113 39.9939 40.7534C40.1461 40.5954 40.2316 40.3812 40.2316 40.1579C40.2316 39.9346 40.1461 39.7204 39.9939 39.5624C39.8417 39.4045 39.6353 39.3158 39.4201 39.3158H30.9447C30.4424 39.3143 29.9528 39.1517 29.5431 38.8502C29.1333 38.5486 28.8235 38.123 28.656 37.6316H38.3301C39.2815 37.6316 40.2027 37.2848 40.9327 36.6517C41.6627 36.0186 42.1551 35.1395 42.3239 34.168L42.961 30.5015C43.0246 30.1377 43.0103 29.7638 42.9191 29.4064C42.828 29.049 42.6622 28.7168 42.4335 28.4333ZM41.3679 30.2025L40.7299 33.8691C40.6286 34.4526 40.3327 34.9806 39.8939 35.3606C39.4552 35.7406 38.9016 35.9483 38.3301 35.9474H28.398L27.6343 29.2105H40.5644C40.6836 29.2098 40.8015 29.2363 40.9097 29.2882C41.018 29.3401 41.1138 29.4161 41.1905 29.5108C41.2672 29.6055 41.3229 29.7166 41.3535 29.8362C41.3842 29.9557 41.3891 30.0808 41.3679 30.2025Z" fill="#848484"/>
<path d="M30 45C31.1046 45 32 44.1046 32 43C32 41.8954 31.1046 41 30 41C28.8954 41 28 41.8954 28 43C28 44.1046 28.8954 45 30 45Z" fill="#848484"/>
<path d="M38 45C39.1046 45 40 44.3284 40 43.5C40 42.6716 39.1046 42 38 42C36.8954 42 36 42.6716 36 43.5C36 44.3284 36.8954 45 38 45Z" fill="#848484"/>
</svg>
