<svg width="69" height="69" viewBox="0 0 69 69" fill="none" xmlns="http://www.w3.org/2000/svg">
<rect width="69" height="69" rx="34.5" fill="#008060" fill-opacity="0.08"/>
<path d="M33.3522 29.1733L34 30.2833L34.6478 29.1733C35.1245 28.3564 35.823 27.6684 36.6768 27.1825C37.5248 26.7 38.4941 26.4351 39.4879 26.417C41.0886 26.4882 42.5875 27.1546 43.6623 28.2603C44.7406 29.3694 45.3051 30.8297 45.2458 32.3207L45.2452 32.3356V32.3505C45.2452 34.2461 44.1811 36.3323 42.5167 38.4059C40.8683 40.4595 38.7171 42.395 36.7318 43.9744L36.7313 43.9748C35.9713 44.5805 35.0043 44.9167 34 44.9167C32.9957 44.9167 32.0287 44.5805 31.2687 43.9748L31.2682 43.9744C29.2829 42.395 27.1317 40.4595 25.4833 38.4059C23.8189 36.3323 22.7548 34.2461 22.7548 32.3505V32.3356L22.7542 32.3207C22.6949 30.8297 23.2595 29.3694 24.3377 28.2603C25.4125 27.1546 26.9114 26.4882 28.5121 26.417C29.5059 26.4351 30.4752 26.7 31.3232 27.1825C32.177 27.6684 32.8755 28.3564 33.3522 29.1733Z" stroke="#848484" stroke-width="1.5"/>
</svg>
