<svg width="25" height="25" viewBox="0 0 25 25" fill="none" xmlns="http://www.w3.org/2000/svg">
<g clip-path="url(#clip0_786_2156)">
<path fill-rule="evenodd" clip-rule="evenodd" d="M12.8219 2.16855C10.8115 2.1016 8.78029 2.65009 7.02667 3.82064C5.0571 5.13673 3.68067 7.0802 3.04667 9.25282C2.87159 9.23145 2.66194 9.24088 2.41299 9.31129C1.48353 9.57501 0.78447 10.3366 0.470145 11.0074C0.0624641 11.8815 -0.109472 13.0376 0.0718938 14.2311C0.252002 15.4208 0.754609 16.4015 1.38326 17.0104C2.0138 17.6195 2.72575 17.8176 3.43298 17.6689C4.48597 17.4442 5.00807 17.276 4.86065 16.295L4.14681 11.5395C4.29077 8.96584 5.6232 6.54302 7.85177 5.05312C10.8347 3.0606 14.7456 3.18822 17.5908 5.37247C19.5702 6.89004 20.7193 9.16387 20.852 11.5509L20.3528 14.8774C19.2395 17.9241 16.4794 20.0345 13.2855 20.3341H11.1588C10.61 20.3341 10.168 20.776 10.168 21.3242V21.8466C10.168 22.3951 10.61 22.837 11.1588 22.837H13.8403C14.3888 22.837 14.8289 22.3951 14.8289 21.8466V21.5735C17.2372 20.9857 19.3394 19.5055 20.7083 17.4413L21.5674 17.6692C22.2664 17.8506 22.9869 17.6195 23.6171 17.0107C24.2457 16.4015 24.748 15.4212 24.9285 14.2314C25.1105 13.0379 24.9335 11.8837 24.5305 11.0077C24.126 10.1317 23.5234 9.57532 22.8278 9.37572C22.5364 9.2918 22.2202 9.26099 21.949 9.25282C21.3756 7.28829 20.1953 5.50166 18.4942 4.19721C16.8217 2.91381 14.8323 2.23456 12.8219 2.16855Z" fill="#F9F9FC"/>
<path fill-rule="evenodd" clip-rule="evenodd" d="M15.9605 10.7243C16.6693 10.7243 17.2439 11.2989 17.2454 12.0096C17.2439 12.7184 16.6693 13.2945 15.9605 13.2945C15.2498 13.2945 14.6736 12.7184 14.6736 12.0096C14.6736 11.2992 15.2501 10.7243 15.9605 10.7243ZM12.4998 10.7243C13.2101 10.7243 13.7847 11.2989 13.7847 12.0096C13.7847 12.7184 13.2101 13.2945 12.4998 13.2945C11.7887 13.2945 11.2142 12.7184 11.2142 12.0096C11.2142 11.2992 11.7887 10.7243 12.4998 10.7243ZM9.04028 10.7243C9.74909 10.7243 10.3252 11.2989 10.3252 12.0096C10.3252 12.7184 9.74909 13.2945 9.04028 13.2945C8.32991 13.2945 7.755 12.7184 7.755 12.0096C7.755 11.2992 8.32991 10.7243 9.04028 10.7243ZM12.4998 5.2041C8.73099 5.2041 5.69397 8.14116 5.69397 12.0096C5.69397 13.8675 6.39649 15.5096 7.54095 16.7144L7.13484 18.535C7.00094 19.1341 7.41648 19.537 7.95492 19.2372L9.73274 18.2455C10.5777 18.6123 11.5121 18.815 12.4998 18.815C16.2698 18.815 19.3049 15.8799 19.3049 12.0096C19.3049 8.14116 16.2698 5.2041 12.4998 5.2041Z" fill="#F9F9FC"/>
</g>
<defs>
<clipPath id="clip0_786_2156">
<rect width="25" height="25" fill="white"/>
</clipPath>
</defs>
</svg>
