<svg width="64" height="64" viewBox="0 0 64 64" fill="none" xmlns="http://www.w3.org/2000/svg">
<rect width="64" height="64" rx="32" fill="#B4B4B4" fill-opacity="0.26"/>
<g clip-path="url(#clip0_694_2608)">
<path d="M31.3438 23.8847L31.9999 25.0703L32.6561 23.8847C33.2739 22.7685 34.1753 21.8351 35.2693 21.1787C36.3569 20.5261 37.5966 20.1704 38.8645 20.1468C40.9021 20.2411 42.8208 21.1351 44.2038 22.6352C45.5919 24.1407 46.3277 26.1344 46.2505 28.1807L46.2499 28.1948V28.209C46.2499 30.804 44.8738 33.6137 42.7848 36.3578C40.7092 39.0841 38.0057 41.6476 35.518 43.7344L35.5174 43.7348C34.5323 44.5627 33.2867 45.0165 31.9999 45.0165C30.7132 45.0165 29.4676 44.5627 28.4825 43.7348L28.4819 43.7344C25.9942 41.6476 23.2907 39.0842 21.2151 36.3578C19.1261 33.6137 17.7499 30.804 17.7499 28.209V28.1948L17.7494 28.1807C17.6722 26.1344 18.408 24.1407 19.7961 22.6352C21.1791 21.1351 23.0978 20.2411 25.1354 20.1468C26.4033 20.1704 27.643 20.5261 28.7306 21.1787C29.8246 21.8351 30.726 22.7685 31.3438 23.8847Z" stroke="#1E0405" stroke-width="1.5"/>
</g>
<defs>
<clipPath id="clip0_694_2608">
<rect width="30" height="30" fill="white" transform="translate(17 17)"/>
</clipPath>
</defs>
</svg>
