<svg width="35" height="35" viewBox="0 0 35 35" fill="none" xmlns="http://www.w3.org/2000/svg">
<g clip-path="url(#clip0_1307_4811)">
<path d="M20.425 21.4437C19.5543 22.0242 18.5428 22.3311 17.5 22.3311C16.4572 22.3311 15.4458 22.0242 14.575 21.4437L0.233037 11.8821C0.153467 11.829 0.0759472 11.7737 0 11.7169V27.3846C0 29.181 1.45776 30.6066 3.22198 30.6066H31.7779C33.5743 30.6066 34.9999 29.1488 34.9999 27.3846V11.7168C34.9238 11.7738 34.8462 11.8292 34.7664 11.8824L20.425 21.4437Z" fill="white"/>
<path d="M1.37061 10.1762L15.7126 19.7379C16.2555 20.0999 16.8777 20.2808 17.4999 20.2808C18.1222 20.2808 18.7445 20.0998 19.2874 19.7379L33.6294 10.1762C34.4876 9.60439 35 8.64735 35 7.61444C35 5.8384 33.5551 4.39355 31.7791 4.39355H3.22089C1.44491 4.39362 0 5.83847 0 7.61615C0 8.64735 0.512422 9.60439 1.37061 10.1762Z" fill="white"/>
</g>
<defs>
<clipPath id="clip0_1307_4811">
<rect width="35" height="35" fill="white"/>
</clipPath>
</defs>
</svg>
