<svg width="64" height="64" viewBox="0 0 64 64" fill="none" xmlns="http://www.w3.org/2000/svg">
<g clip-path="url(#clip0_838_1293)">
<path d="M32 0C14.3553 0 0 14.3553 0 32C0 49.6434 14.3553 64 32 64C49.6434 64 64 49.6434 64 32C64 14.3553 49.646 0 32 0ZM39.9581 33.1266H34.7519V51.6826H27.0375C27.0375 51.6826 27.0375 41.5435 27.0375 33.1266H23.3703V26.5683H27.0375V22.3263C27.0375 19.2882 28.4811 14.5409 34.8228 14.5409L40.5394 14.5628V20.929C40.5394 20.929 37.0657 20.929 36.3902 20.929C35.7148 20.929 34.7545 21.2667 34.7545 22.7155V26.5696H40.6322L39.9581 33.1266Z" fill="#EF0401"/>
</g>
<defs>
<clipPath id="clip0_838_1293">
<rect width="64" height="64" fill="white"/>
</clipPath>
</defs>
</svg>
