<svg width="38" height="38" viewBox="0 0 38 38" fill="none" xmlns="http://www.w3.org/2000/svg">
<path d="M33.25 16.8438V16.625C33.25 8.76767 26.8573 2.375 19 2.375C11.1427 2.375 4.75 8.76767 4.75 16.625V16.8438C3.37072 17.3356 2.375 18.6414 2.375 20.1875V22.5625C2.375 24.527 3.97302 26.125 5.9375 26.125H7.125C7.78079 26.125 8.3125 25.5933 8.3125 24.9375V17.8125C8.3125 17.1567 7.78079 16.625 7.125 16.625C7.125 10.0769 12.4519 4.75 19 4.75C25.5481 4.75 30.875 10.0769 30.875 16.625C30.2192 16.625 29.6875 17.1567 29.6875 17.8125V24.9375C29.6875 25.5933 30.2192 26.125 30.875 26.125H32.0625C34.027 26.125 35.625 24.527 35.625 22.5625V20.1875C35.625 18.6414 34.6293 17.3356 33.25 16.8438Z" fill="#008060"/>
<path d="M29.6875 27.3125C29.6875 30.5862 27.0237 33.25 23.75 33.25H22.5625C22.5625 31.9402 21.4973 30.875 20.1875 30.875H17.8125C16.5027 30.875 15.4375 31.9402 15.4375 33.25C15.4375 34.5598 16.5027 35.625 17.8125 35.625H23.75C28.3336 35.625 32.0625 31.8961 32.0625 27.3125H29.6875Z" fill="#008060"/>
<path d="M19 10.6875C13.7616 10.6875 9.5 14.9491 9.5 20.1875C9.5 25.4259 13.7616 29.6875 19 29.6875C24.2377 29.6875 28.5 25.4259 28.5 20.1875C28.5 14.9491 24.2377 10.6875 19 10.6875ZM19 27.3125C18.3441 27.3125 17.8125 26.7809 17.8125 26.125C17.8125 25.4691 18.3441 24.9375 19 24.9375C19.6559 24.9375 20.1875 25.4691 20.1875 26.125C20.1875 26.7809 19.6559 27.3125 19 27.3125ZM20.4948 19.8582C19.9474 20.1115 19.5938 20.7198 19.5938 21.4075V23.1551C19.5938 23.4833 19.3282 23.7488 19 23.7488C18.6718 23.7488 18.4062 23.4833 18.4062 23.1551V21.4075C18.4062 20.2588 19.0302 19.2279 19.9962 18.7808C21.0584 18.2891 21.5907 17.1382 21.2915 15.9814C21.0862 15.1853 20.438 14.5382 19.6425 14.3318C18.8962 14.1398 18.1331 14.2906 17.5469 14.7452C16.9613 15.1992 16.625 15.884 16.625 16.6238C16.625 16.952 16.3594 17.2176 16.0312 17.2176C15.7031 17.2176 15.4375 16.952 15.4375 16.6238C15.4375 15.5135 15.9414 14.4866 16.8198 13.8058C17.6994 13.1251 18.8359 12.8978 19.9393 13.1825C21.1465 13.4945 22.1288 14.4767 22.4419 15.6845C22.886 17.4055 22.0859 19.1218 20.4948 19.8582Z" fill="#008060"/>
</svg>
