<svg width="35" height="35" viewBox="0 0 35 35" fill="none" xmlns="http://www.w3.org/2000/svg">
<path d="M25 2.5H10C5.87542 2.5 2.50006 5.87536 2.50006 9.99999V25.0007C2.50006 29.1242 5.87542 32.5007 10 32.5007H25C29.1246 32.5007 32.5 29.1242 32.5 25.0007V9.99999C32.5 5.87536 29.1246 2.5 25 2.5ZM29.9999 25.0007C29.9999 27.7569 27.7578 30.0006 25 30.0006H10C7.24344 30.0006 5.00018 27.7569 5.00018 25.0007V9.99999C5.00018 7.24301 7.24344 5.00012 10 5.00012H25C27.7578 5.00012 29.9999 7.24301 29.9999 9.99999V25.0007Z" fill="#F9F9FC"/>
<path d="M25.6262 11.25C26.6617 11.25 27.5012 10.4105 27.5012 9.375C27.5012 8.33946 26.6617 7.5 25.6262 7.5C24.5907 7.5 23.7512 8.33946 23.7512 9.375C23.7512 10.4105 24.5907 11.25 25.6262 11.25Z" fill="#F9F9FC"/>
<path d="M17.5 10C13.357 10 10 13.3573 10 17.5C10 21.6411 13.357 25.0007 17.5 25.0007C21.6419 25.0007 25 21.6411 25 17.5C25 13.3573 21.6419 10 17.5 10ZM17.5 22.5006C14.7389 22.5006 12.5001 20.2619 12.5001 17.5C12.5001 14.7381 14.7389 12.5001 17.5 12.5001C20.2612 12.5001 22.4999 14.7381 22.4999 17.5C22.4999 20.2619 20.2612 22.5006 17.5 22.5006Z" fill="#F9F9FC"/>
</svg>
