<svg width="64" height="64" viewBox="0 0 64 64" fill="none" xmlns="http://www.w3.org/2000/svg">
<rect x="0.5" y="0.5" width="63" height="63" rx="7.5" fill="#008060" stroke="#008060"/>
<g clip-path="url(#clip0_114_1615)">
<path d="M31.3438 23.8844L31.9999 25.07L32.6561 23.8844C33.2739 22.7682 34.1753 21.8348 35.2693 21.1784C36.3569 20.5259 37.5966 20.1701 38.8645 20.1465C40.9021 20.2409 42.8208 21.1348 44.2038 22.6349C45.5919 24.1404 46.3277 26.1341 46.2505 28.1805L46.2499 28.1946V28.2087C46.2499 30.8038 44.8738 33.6135 42.7848 36.3576C40.7092 39.0839 38.0057 41.6474 35.518 43.7341L35.5174 43.7346C34.5323 44.5624 33.2867 45.0163 31.9999 45.0163C30.7132 45.0163 29.4676 44.5624 28.4825 43.7346L28.4819 43.7341C25.9942 41.6474 23.2907 39.0839 21.2151 36.3576C19.1261 33.6135 17.7499 30.8038 17.7499 28.2087V28.1946L17.7494 28.1805C17.6722 26.1341 18.408 24.1404 19.7961 22.6349C21.1791 21.1348 23.0978 20.2409 25.1354 20.1465C26.4033 20.1701 27.643 20.5259 28.7306 21.1784C29.8246 21.8348 30.726 22.7682 31.3438 23.8844Z" stroke="white" stroke-width="1.5"/>
</g>
<defs>
<clipPath id="clip0_114_1615">
<rect width="30" height="30" fill="white" transform="translate(17 17)"/>
</clipPath>
</defs>
</svg>
