<svg width="42" height="42" viewBox="0 0 42 42" fill="none" xmlns="http://www.w3.org/2000/svg">
<circle cx="21" cy="21" r="21" fill="#F7F7F7"/>
<path d="M20.3522 15.1736L21 16.2836L21.6478 15.1736C22.1245 14.3566 22.823 13.6686 23.6768 13.1828C24.5248 12.7002 25.4941 12.4354 26.4879 12.4173C28.0886 12.4885 29.5875 13.1549 30.6623 14.2605C31.7406 15.3697 32.3051 16.8299 32.2458 18.3209L32.2452 18.3358V18.3507C32.2452 20.2463 31.1811 22.3326 29.5167 24.4062C27.8683 26.4597 25.7171 28.3952 23.7318 29.9746L23.7313 29.975C22.9713 30.5808 22.0043 30.917 21 30.917C19.9957 30.917 19.0287 30.5808 18.2687 29.975L18.2682 29.9746C16.2829 28.3952 14.1317 26.4597 12.4833 24.4062C10.8189 22.3326 9.75484 20.2463 9.75484 18.3507V18.3358L9.75425 18.3209C9.69493 16.8299 10.2595 15.3697 11.3377 14.2605C12.4125 13.1549 13.9114 12.4885 15.5121 12.4173C16.5059 12.4354 17.4752 12.7002 18.3232 13.1828C19.177 13.6686 19.8755 14.3566 20.3522 15.1736Z" fill="#ED1C24" stroke="#ED1C24" stroke-width="1.5"/>
</svg>
