<svg width="24" height="24" viewBox="0 0 24 24" fill="none" xmlns="http://www.w3.org/2000/svg">
<g clip-path="url(#clip0_1127_4757)">
<path d="M14 9.49975C14 10.6027 13.103 11.4998 12 11.4998C10.897 11.4998 10 10.6027 10 9.49975C10 8.39675 10.897 7.49975 12 7.49975C13.103 7.49975 14 8.39675 14 9.49975ZM21.168 8.21675C20.929 7.78575 20.611 7.45575 20.25 7.22175C19.606 6.80575 19.263 6.04075 19.433 5.29375C19.53 4.86475 19.524 4.39675 19.385 3.91275C19.139 3.05375 18.439 2.35375 17.58 2.10775C17.096 1.96875 16.628 1.96275 16.2 2.05975C15.452 2.22975 14.687 1.88775 14.271 1.24275C14.038 0.88175 13.707 0.56375 13.277 0.32475C12.495 -0.10825 11.506 -0.10825 10.724 0.32475C10.293 0.56375 9.96302 0.88175 9.73002 1.24275C9.31402 1.88675 8.54902 2.22975 7.80102 2.05975C7.37302 1.96275 6.90502 1.96875 6.42102 2.10775C5.56202 2.35375 4.86202 3.05375 4.61602 3.91275C4.47702 4.39675 4.47102 4.86575 4.56802 5.29375C4.73802 6.04175 4.39502 6.80675 3.75102 7.22175C3.38902 7.45475 3.07202 7.78575 2.83302 8.21675C2.61402 8.61075 2.50802 9.05875 2.51002 9.50575C2.50802 9.95275 2.61502 10.3997 2.83302 10.7948C3.07202 11.2257 3.39002 11.5557 3.75102 11.7898C4.39502 12.2058 4.73802 12.9708 4.56802 13.7178C4.47102 14.1468 4.47702 14.6148 4.61602 15.0998C4.86202 15.9588 5.56202 16.6588 6.42102 16.9048C6.90502 17.0438 7.37302 17.0497 7.80102 16.9527C8.54902 16.7827 9.31402 17.1248 9.73002 17.7698C9.96302 18.1308 10.293 18.4487 10.724 18.6877C11.506 19.1208 12.496 19.1208 13.277 18.6877C13.708 18.4487 14.038 18.1308 14.271 17.7698C14.687 17.1258 15.452 16.7827 16.2 16.9527C16.628 17.0497 17.096 17.0438 17.58 16.9048C18.439 16.6588 19.139 15.9588 19.385 15.0998C19.524 14.6158 19.53 14.1468 19.433 13.7178C19.263 12.9698 19.606 12.2048 20.25 11.7898C20.612 11.5568 20.929 11.2257 21.168 10.7948C21.387 10.4008 21.493 9.95275 21.491 9.50575C21.493 9.05875 21.386 8.61175 21.168 8.21675ZM11.989 13.5017C9.78302 13.5017 7.98902 11.7078 7.98902 9.50175C7.98902 7.29575 9.78302 5.50175 11.989 5.50175C14.195 5.50175 15.989 7.29575 15.989 9.50175C15.989 11.7078 14.195 13.5017 11.989 13.5017ZM8.10102 18.9317C7.37502 19.0737 6.60502 19.0378 5.87002 18.8267C4.44402 18.4188 3.29402 17.3207 2.79402 15.9327L0.488017 18.1558C-0.483983 19.0938 0.0830166 20.7397 1.42702 20.8787L3.19202 21.0608L3.41002 22.6287C3.58902 23.9198 5.16102 24.4567 6.09302 23.5457L9.49402 20.2498C8.94102 19.8948 8.46102 19.4657 8.10102 18.9317ZM14.507 20.2498L17.908 23.5457C18.84 24.4567 20.412 23.9198 20.591 22.6287L20.809 21.0608L22.574 20.8787C23.918 20.7397 24.485 19.0938 23.513 18.1558L21.207 15.9327C20.707 17.3207 19.557 18.4188 18.131 18.8267C17.396 19.0378 16.626 19.0737 15.9 18.9317C15.54 19.4657 15.06 19.8948 14.507 20.2498Z" fill="#878787"/>
</g>
<defs>
<clipPath id="clip0_1127_4757">
<rect width="24" height="24" fill="white"/>
</clipPath>
</defs>
</svg>
