<svg width="38" height="38" viewBox="0 0 38 38" fill="none" xmlns="http://www.w3.org/2000/svg">
<path d="M30.7384 10.1347C30.4266 9.75601 30.0362 9.45142 29.595 9.24258C29.1538 9.03375 28.6726 8.9258 28.1855 8.9264H10.2632L10.2167 8.5326C10.1214 7.71404 9.73269 6.95932 9.12424 6.41152C8.51579 5.86372 7.7299 5.56093 6.91556 5.56055L6.66948 5.56055C6.37548 5.56055 6.09353 5.67875 5.88565 5.88916C5.67776 6.09957 5.56097 6.38494 5.56097 6.6825C5.56097 6.98006 5.67776 7.26543 5.88565 7.47584C6.09353 7.68624 6.37548 7.80445 6.66948 7.80445H6.91556C7.18707 7.80449 7.44913 7.90538 7.65202 8.08798C7.85492 8.27059 7.98454 8.52222 8.01631 8.79513L9.54161 21.922C9.69996 23.2871 10.348 24.546 11.3628 25.4595C12.3775 26.373 13.6884 26.8776 15.0464 26.8776H26.6225C26.9165 26.8776 27.1985 26.7594 27.4063 26.549C27.6142 26.3386 27.731 26.0532 27.731 25.7557C27.731 25.4581 27.6142 25.1727 27.4063 24.9623C27.1985 24.7519 26.9165 24.6337 26.6225 24.6337H15.0464C14.3603 24.6318 13.6916 24.4151 13.132 24.0133C12.5723 23.6116 12.1491 23.0445 11.9205 22.3898H25.1338C26.4333 22.3899 27.6915 21.9278 28.6886 21.0844C29.6856 20.2409 30.3582 19.0696 30.5887 17.7752L31.4589 12.8903C31.5458 12.4056 31.5262 11.9075 31.4017 11.4313C31.2772 10.9551 31.0507 10.5125 30.7384 10.1347ZM29.2829 12.492L28.4116 17.3769C28.2732 18.1544 27.869 18.8579 27.2697 19.3641C26.6705 19.8704 25.9144 20.1471 25.1338 20.1459H11.5679L10.5248 11.1703H28.1855C28.3483 11.1693 28.5094 11.2047 28.6572 11.2738C28.805 11.343 28.936 11.4442 29.0407 11.5704C29.1455 11.6966 29.2215 11.8446 29.2634 12.0038C29.3052 12.1631 29.3119 12.3298 29.2829 12.492Z" fill="#171717"/>
<path d="M13.439 32.4388C14.7187 32.4388 15.7561 31.4014 15.7561 30.1218C15.7561 28.8421 14.7187 27.8047 13.439 27.8047C12.1593 27.8047 11.1219 28.8421 11.1219 30.1218C11.1219 31.4014 12.1593 32.4388 13.439 32.4388Z" fill="#171717"/>
<path d="M24.561 32.4388C25.8407 32.4388 26.878 31.4014 26.878 30.1218C26.878 28.8421 25.8407 27.8047 24.561 27.8047C23.2813 27.8047 22.2439 28.8421 22.2439 30.1218C22.2439 31.4014 23.2813 32.4388 24.561 32.4388Z" fill="#171717"/>
</svg>
