<svg width="24" height="24" viewBox="0 0 24 24" fill="none" xmlns="http://www.w3.org/2000/svg">
<path d="M11.3522 6.17454L12 7.28454L12.6478 6.17454C13.1245 5.35763 13.823 4.66958 14.6768 4.18374C15.5248 3.70117 16.4941 3.43636 17.4879 3.41823C19.0886 3.48944 20.5875 4.15583 21.6623 5.2615C22.7406 6.37065 23.3051 7.83089 23.2458 9.32188L23.2452 9.33678V9.35169C23.2452 11.2473 22.1811 13.3335 20.5167 15.4071C18.8683 17.4607 16.7171 19.3962 14.7318 20.9756L14.7313 20.976C13.9713 21.5817 13.0043 21.918 12 21.918C10.9957 21.918 10.0287 21.5817 9.26874 20.976L9.26822 20.9756C7.28293 19.3962 5.13166 17.4607 3.48331 15.4071C1.81886 13.3335 0.754839 11.2473 0.754839 9.35169V9.33678L0.754246 9.32188C0.694926 7.83089 1.25945 6.37065 2.33767 5.2615C3.41252 4.15583 4.91137 3.48944 6.5121 3.41823C7.50586 3.43636 8.47521 3.70117 9.32323 4.18374C10.177 4.66958 10.8755 5.35763 11.3522 6.17454Z" fill="#008060" stroke="#008060" stroke-width="1.5"/>
</svg>
